<svg width="48" height="48" viewBox="0 0 48 48" fill="none" xmlns="http://www.w3.org/2000/svg">
<path fill-rule="evenodd" clip-rule="evenodd" d="M24 40C32.8366 40 40 32.8366 40 24C40 15.1634 32.8366 8 24 8C15.1634 8 8 15.1634 8 24C8 32.8366 15.1634 40 24 40ZM24 44C35.0457 44 44 35.0457 44 24C44 12.9543 35.0457 4 24 4C12.9543 4 4 12.9543 4 24C4 35.0457 12.9543 44 24 44Z" fill="#FCFCFD"/>
<path d="M12.0001 40.001C16.8579 36.3521 20.0001 30.5428 20.0001 23.9995C20.0001 17.4562 16.8579 11.6469 12.0001 7.99805C10.9084 8.81811 9.90324 9.74731 9.00098 10.7694C13.226 13.6495 16.0001 18.5005 16.0001 23.9995C16.0001 29.4985 13.226 34.3496 9.00098 37.2296C9.90325 38.2517 10.9084 39.1809 12.0001 40.001Z" fill="#FCFCFD"/>
<path d="M36.0001 7.99805C31.1423 11.6469 28.0001 17.4562 28.0001 23.9995C28.0001 30.5428 31.1423 36.3521 36.0001 40.001C37.0919 39.1809 38.097 38.2517 38.9993 37.2296C34.7742 34.3496 32.0001 29.4985 32.0001 23.9995C32.0001 18.5005 34.7742 13.6495 38.9993 10.7694C38.097 9.74731 37.0919 8.81812 36.0001 7.99805Z" fill="#FCFCFD"/>
</svg>
